<?xml version="1.0" standalone="no"?>
<!DOCTYPE svg PUBLIC "-//W3C//DTD SVG 1.1//EN" "http://www.w3.org/Graphics/SVG/1.1/DTD/svg11.dtd" >
<svg xmlns="http://www.w3.org/2000/svg">
<metadata></metadata>
<defs>
<font id="foundation_sans_lightregular" horiz-adv-x="1024" >
<font-face units-per-em="2048" ascent="1690" descent="-358" />
<missing-glyph horiz-adv-x="614" />
<glyph unicode="&#xfb01;" horiz-adv-x="935" d="M35 891v98h141v166q0 121 52.5 174t172.5 53q43 0 70 -4v-110q-35 6 -51 6q-67 0 -91 -27t-24 -102v-156h166v-98h-166v-891h-129v891h-141zM662 0v989h122v-989h-122zM662 1202v164h122v-164h-122z" />
<glyph unicode="&#xfb02;" horiz-adv-x="942" d="M35 891v98h141v166q0 121 52.5 174t172.5 53q43 0 70 -4v-110q-35 6 -51 6q-67 0 -91 -27t-24 -102v-156h166v-98h-166v-891h-129v891h-141zM662 0v1366h129v-1366h-129z" />
<glyph horiz-adv-x="2048" />
<glyph horiz-adv-x="2048" />
<glyph unicode="&#xd;" horiz-adv-x="2048" />
<glyph unicode=" "  horiz-adv-x="614" />
<glyph unicode="&#x09;" horiz-adv-x="614" />
<glyph unicode="&#xa0;" horiz-adv-x="614" />
<glyph unicode="!" horiz-adv-x="491" d="M164 0v178h164v-178h-164zM174 913v453h143v-453l-26 -571h-90z" />
<glyph unicode="&#x22;" horiz-adv-x="636" d="M109 1366h141l-21 -547h-102zM389 1366h141l-20 -547h-100z" />
<glyph unicode="#" horiz-adv-x="1226" d="M125 481l10 72h260l33 235h-260l10 74h260l56 383h73l-53 -383h248l53 383h76l-55 -383h266l-10 -74h-267l-32 -235h266l-10 -72h-267l-57 -415h-76l58 415h-246l-60 -415h-73l57 415h-260zM471 553h246l35 235h-248z" />
<glyph unicode="$" horiz-adv-x="1146" d="M119 403h129q9 -281 274 -311v563q-105 25 -174 50q-94 35 -143 115.5t-49 199.5q0 159 90.5 247.5t275.5 110.5v178h99v-178q157 -5 255.5 -97t108.5 -245h-123q-23 220 -241 238v-514q125 -31 186 -51q221 -78 221 -324q0 -177 -105 -279.5t-302 -119.5v-176h-99v176 q-187 10 -294 121t-109 296zM289 1028q0 -166 143 -221q38 -13 90 -27v494q-233 -30 -233 -246zM621 92q78 11 129 33q69 34 107 100t38 152q0 93 -43 148.5t-139 86.5l-92 25v-545z" />
<glyph unicode="%" horiz-adv-x="1396" d="M68 1022q0 170 58.5 260t168.5 90q229 0 229 -356q0 -167 -59 -256.5t-168 -89.5q-112 0 -170.5 90t-58.5 262zM170 1022q0 -132 32.5 -201t94.5 -69q60 0 92.5 68.5t32.5 197.5q0 272 -127 272q-61 0 -93 -68.5t-32 -199.5zM217 0l864 1366h99l-863 -1366h-100zM872 346 q0 170 59 260t169 90q229 0 229 -356q0 -167 -59 -256.5t-168 -89.5q-112 0 -171 90t-59 262zM975 346q0 -132 32.5 -201t94.5 -69q60 0 92.5 68.5t32.5 197.5q0 272 -127 272q-61 0 -93 -68.5t-32 -199.5z" />
<glyph unicode="&#x26;" horiz-adv-x="1249" d="M117 389q0 136 75 234t246 184l-16 24q-70 105 -92.5 153.5t-22.5 109.5q0 120 87 199t216 79q123 0 202 -75.5t79 -192.5q0 -107 -62.5 -185.5t-199.5 -146.5l332 -403q46 98 53 256h129q-17 -206 -101 -359l222 -266h-150l-143 166q-90 -98 -190 -142t-230 -44 q-192 0 -313 114t-121 295zM254 387q0 -127 88 -209t223 -82q185 0 326 166l-379 455q-258 -111 -258 -330zM436 1098q0 -47 27.5 -101t93.5 -139l21 10q184 90 184 230q0 69 -44.5 113t-113.5 44q-72 0 -120 -45.5t-48 -111.5z" />
<glyph unicode="'" horiz-adv-x="360" d="M109 1366h143l-19 -547h-106z" />
<glyph unicode="(" horiz-adv-x="643" d="M106 530q0 466 279 836h96q-245 -353 -245 -811q0 -500 276 -889h-104q-157 222 -229.5 428.5t-72.5 435.5z" />
<glyph unicode=")" horiz-adv-x="643" d="M129 1366h104q158 -220 231 -427t73 -437q0 -463 -281 -836h-96q248 353 248 811q0 500 -279 889z" />
<glyph unicode="*" horiz-adv-x="765" d="M88 1112l33 105l213 -76l-6 225h108l-6 -225l213 76l33 -105l-215 -63l137 -179l-88 -63l-127 184l-129 -184l-86 61l135 181z" />
<glyph unicode="+" d="M51 653v76h420v391h78v-391h422v-76h-422v-391h-78v391h-420z" />
<glyph unicode="," horiz-adv-x="475" d="M150 0v205h174v-223q0 -222 -174 -252v92q47 15 64.5 53.5t16.5 124.5h-81z" />
<glyph unicode="-" horiz-adv-x="495" d="M0 446v117h496v-117h-496z" />
<glyph unicode="." horiz-adv-x="475" d="M150 0v205h174v-205h-174z" />
<glyph unicode="/" horiz-adv-x="802" d="M82 0l516 1393h121l-516 -1393h-121z" />
<glyph unicode="0" horiz-adv-x="1146" d="M127 678q0 323 90 493q53 98 147 153.5t209 55.5q117 0 212.5 -55.5t146.5 -153.5q49 -93 69.5 -208.5t20.5 -294.5q0 -313 -90 -486q-51 -98 -146.5 -153.5t-212.5 -55.5q-115 0 -209 55.5t-147 153.5q-47 92 -68.5 209.5t-21.5 286.5zM264 678q0 -286 72 -436 q32 -69 96.5 -110.5t142.5 -41.5q157 0 233.5 143.5t76.5 436.5q0 299 -70 442q-34 70 -99.5 111t-142.5 41q-76 0 -140.5 -41.5t-96.5 -110.5q-72 -150 -72 -434z" />
<glyph unicode="1" horiz-adv-x="1146" d="M266 1022v88q171 2 253 61.5t95 194.5h103v-1366h-133v1022h-318z" />
<glyph unicode="2" horiz-adv-x="1146" d="M137 41q0 173 92 301q45 65 117.5 121.5t226.5 146.5q174 101 234.5 178t60.5 195q0 128 -71.5 199t-200.5 71q-286 0 -289 -331h-139q1 216 116 337t318 121q184 0 297 -107t113 -282q0 -165 -109 -286q-78 -87 -254 -189q-209 -121 -281 -197.5t-94 -201.5h732v-117 h-867q-2 18 -2 41z" />
<glyph unicode="3" horiz-adv-x="1146" d="M127 406h135q3 -149 86.5 -232.5t229.5 -83.5q134 0 220.5 83t86.5 210q0 135 -87.5 209t-248.5 74q-33 0 -74 -2v104q31 -2 70 -2q147 0 223 70q80 71 80 186q0 107 -76 174.5t-197 67.5q-132 0 -207 -78.5t-75 -216.5v-17h-131q3 199 113.5 313.5t299.5 114.5 q178 0 290 -100t112 -258q0 -98 -46 -169.5t-145 -127.5q236 -93 236 -330q0 -184 -127 -303t-324 -119q-117 0 -212.5 44.5t-155.5 127.5q-40 56 -58 116.5t-18 144.5z" />
<glyph unicode="4" horiz-adv-x="1146" d="M119 338v108l614 906h113v-906h190v-108h-190v-338h-127v338h-600zM254 446h465v302q0 233 6 411q-182 -278 -471 -713z" />
<glyph unicode="5" horiz-adv-x="1146" d="M131 352h133q15 -126 94.5 -194t208.5 -68q148 0 235 91t87 245q0 152 -86.5 243t-229.5 91q-187 0 -280 -137h-119l105 729h661v-129h-557l-64 -426q119 80 271 80q195 0 311.5 -121t116.5 -324q0 -207 -122.5 -333t-326.5 -126q-183 0 -299 100.5t-139 278.5z" />
<glyph unicode="6" horiz-adv-x="1146" d="M121 633q0 354 130 550.5t363 196.5q159 0 263.5 -95t121.5 -255h-135q-13 112 -79 173t-173 61q-196 0 -286 -203q-74 -164 -74 -367v-43q68 110 156 162.5t206 52.5q183 0 297.5 -122t114.5 -316q0 -199 -123 -327t-315 -128q-102 0 -189.5 41.5t-146.5 116.5 q-131 171 -131 502zM291 424q0 -146 85 -240t218 -94q131 0 210 90.5t79 239.5t-80 239.5t-211 90.5q-129 0 -215 -93t-86 -233z" />
<glyph unicode="7" horiz-adv-x="1146" d="M152 1223v129h862v-117q-189 -192 -341.5 -547t-189.5 -688h-147q55 354 191 666t341 557h-716z" />
<glyph unicode="8" horiz-adv-x="1146" d="M119 381q0 253 243 358q-97 50 -142.5 118.5t-45.5 166.5q0 155 112 255.5t287 100.5t287.5 -100.5t112.5 -255.5q0 -98 -45.5 -167t-143.5 -118q244 -105 244 -360q0 -180 -127 -293t-328 -113t-327.5 113.5t-126.5 294.5zM256 385q0 -127 90 -211t227 -84 q135 0 226.5 83.5t91.5 207.5q0 129 -90 213t-228 84q-136 0 -226.5 -83.5t-90.5 -209.5zM303 1024q0 -103 76.5 -171.5t193.5 -68.5q115 0 193 68.5t78 169.5q0 104 -77 173t-194 69t-193.5 -68.5t-76.5 -171.5z" />
<glyph unicode="9" horiz-adv-x="1146" d="M121 924q0 201 123 328.5t315 127.5q103 0 190 -41t146 -116q131 -171 131 -502q0 -354 -130 -551t-364 -197q-160 0 -264 94.5t-121 254.5h134q14 -110 80.5 -171t173.5 -61q97 0 170 51.5t116 149.5q74 167 74 366v43q-67 -110 -155.5 -162.5t-207.5 -52.5 q-183 0 -297 122.5t-114 316.5zM264 934q0 -151 79.5 -241.5t211.5 -90.5q129 0 215 93.5t86 234.5q0 146 -85 240t-218 94q-131 0 -210 -90.5t-79 -239.5z" />
<glyph unicode=":" horiz-adv-x="475" d="M150 0v205h174v-205h-174zM150 784v205h174v-205h-174z" />
<glyph unicode=";" horiz-adv-x="475" d="M150 0v205h174v-223q0 -222 -174 -252v92q47 15 64.5 53.5t16.5 124.5h-81zM150 784v205h174v-205h-174z" />
<glyph unicode="&#x3c;" d="M68 627v116l886 410v-131l-745 -336l745 -338v-131z" />
<glyph unicode="=" d="M51 512v74h920v-74h-920zM51 797v73h920v-73h-920z" />
<glyph unicode="&#x3e;" d="M70 217v133l745 336l-745 336v131l886 -410v-116z" />
<glyph unicode="?" horiz-adv-x="960" d="M76 944v29q0 191 116.5 305.5t311.5 114.5q177 0 286 -100t109 -263q0 -93 -39 -165.5t-139 -162.5q-68 -61 -98 -92t-51.5 -73t-25.5 -80t-5 -115h-121q-2 18 -2 43q0 115 36.5 191.5t131.5 162.5q104 92 140 150t36 133q0 110 -74.5 182t-189.5 72q-83 0 -149 -39 t-103 -109q-35 -68 -35 -176v-8h-135zM401 0v178h164v-178h-164z" />
<glyph unicode="@" horiz-adv-x="1417" d="M63 657q0 141 54 268.5t145.5 220t218.5 146.5t267 54q167 0 306.5 -74t219.5 -202.5t80 -283.5q0 -235 -174 -380q-126 -107 -248 -107q-60 0 -96.5 31t-42.5 88q-55 -61 -108 -88t-116 -27q-91 0 -147.5 67t-56.5 173q0 120 54.5 233t144 182.5t184.5 69.5 q132 0 184 -135l39 104h78l-166 -481q-21 -61 -21 -88q0 -37 22.5 -56.5t63.5 -19.5q101 0 207 101q139 133 139 331q0 141 -71.5 257.5t-196.5 182.5t-276 66q-172 0 -315.5 -83.5t-225.5 -229t-82 -320.5q0 -128 47.5 -242t128.5 -196t194 -130t238 -48q164 0 308.5 83 t218.5 218l61 -2q-29 -68 -64.5 -114t-95.5 -93q-191 -149 -428 -149q-138 0 -262.5 53t-214.5 142.5t-142.5 214.5t-52.5 263zM449 526q0 -80 36 -126t97 -46q83 0 151 68q28 29 46.5 63.5t43.5 100.5l47 129q27 77 27 110q0 63 -39 107.5t-94 44.5q-76 0 -149.5 -66 t-119.5 -171.5t-46 -213.5z" />
<glyph unicode="A" horiz-adv-x="1263" d="M27 0l528 1366h143l539 -1366h-141l-168 430h-600l-162 -430h-139zM369 539h516l-262 686z" />
<glyph unicode="B" horiz-adv-x="1282" d="M164 0v1366h553q111 0 181 -19t122 -65q51 -44 78.5 -112t27.5 -146q0 -109 -47 -182t-147 -117q129 -40 191.5 -122.5t62.5 -215.5q0 -186 -121 -291q-58 -52 -136.5 -74t-203.5 -22h-561zM293 117h446q160 0 237 66t77 204q0 136 -77 202t-237 66h-446v-538zM293 764 h407q87 0 142 18t94 58q61 64 61 166q0 104 -61 168q-38 40 -93 57.5t-143 17.5h-407v-485z" />
<glyph unicode="C" horiz-adv-x="1363" d="M106 682q0 330 166.5 522.5t452.5 192.5q212 0 357 -111.5t186 -306.5h-142q-35 141 -143.5 221t-263.5 80q-220 0 -347.5 -162t-127.5 -442q0 -270 127.5 -430t343.5 -160q175 0 292 107.5t146 295.5h133q-37 -247 -187.5 -383.5t-385.5 -136.5q-280 0 -443.5 192 t-163.5 521z" />
<glyph unicode="D" horiz-adv-x="1357" d="M164 0v1366h500q170 0 284 -51.5t185 -159.5q120 -184 120 -467q0 -304 -143 -493q-77 -103 -188 -149t-287 -46h-471zM301 117h303q160 0 249.5 34.5t152.5 120.5q110 152 110 412q0 142 -31 255t-88 181q-57 67 -138.5 98t-203.5 31h-354v-1132z" />
<glyph unicode="E" horiz-adv-x="1179" d="M164 0v1366h913v-117h-776v-493h713v-109h-713v-530h793v-117h-930z" />
<glyph unicode="F" horiz-adv-x="1079" d="M164 0v1366h866v-117h-729v-485h637v-117h-637v-647h-137z" />
<glyph unicode="G" horiz-adv-x="1449" d="M106 680q0 324 176 520.5t466 196.5q223 0 366.5 -115t177.5 -319h-133q-35 152 -141.5 234.5t-269.5 82.5q-227 0 -365.5 -162.5t-138.5 -429.5q0 -269 135.5 -435.5t353.5 -166.5q124 0 224.5 57.5t156.5 159.5q34 63 50 126.5t22 158.5h-457v108h576v-696h-109v227 q-94 -134 -206.5 -196t-264.5 -62q-280 0 -449.5 195t-169.5 516z" />
<glyph unicode="H" horiz-adv-x="1349" d="M164 0v1366h137v-584h748v584h137v-1366h-137v666h-748v-666h-137z" />
<glyph unicode="I" horiz-adv-x="464" d="M164 0v1366h137v-1366h-137z" />
<glyph unicode="J" horiz-adv-x="944" d="M20 410v39h138v-39q0 -155 61.5 -234.5t181.5 -79.5q119 0 180.5 79.5t61.5 234.5v956h137v-956q0 -214 -96 -322t-285 -108q-188 0 -283.5 108.5t-95.5 321.5z" />
<glyph unicode="K" horiz-adv-x="1261" d="M164 0v1366h137v-704l743 704h179l-605 -559l617 -807h-168l-545 715l-221 -207v-508h-137z" />
<glyph unicode="L" horiz-adv-x="993" d="M164 0v1366h137v-1249h657v-117h-794z" />
<glyph unicode="M" horiz-adv-x="1583" d="M164 0v1366h172l457 -1219l460 1219h166v-1366h-129v362q0 542 10 809l-446 -1171h-127l-446 1186q12 -349 12 -735v-451h-129z" />
<glyph unicode="N" horiz-adv-x="1376" d="M164 0v1366h141l795 -1196q-10 185 -10 561v635h122v-1366h-141l-795 1200q9 -117 9 -215l2 -166v-819h-123z" />
<glyph unicode="O" horiz-adv-x="1478" d="M106 682q0 211 78.5 373.5t222.5 252t330 89.5q289 0 462 -197t173 -526q0 -313 -176 -509t-457 -196q-284 0 -458.5 196.5t-174.5 516.5zM244 684q0 -270 135.5 -434t359.5 -164q221 0 358.5 163t137.5 427q0 270 -123 426q-64 83 -164.5 130.5t-210.5 47.5 q-109 0 -205.5 -46.5t-164.5 -131.5q-123 -154 -123 -418z" />
<glyph unicode="P" horiz-adv-x="1183" d="M164 0v1366h522q117 0 189 -20.5t129 -69.5q112 -97 112 -295t-112 -295q-57 -49 -129 -69.5t-189 -20.5h-385v-596h-137zM301 713h330q184 0 264 63q84 68 84 205t-84 205q-43 34 -104.5 48.5t-159.5 14.5h-330v-536z" />
<glyph unicode="Q" horiz-adv-x="1478" d="M106 684q0 320 174.5 516.5t458.5 196.5t458.5 -197t174.5 -518q0 -342 -207 -549l174 -131l-69 -90l-193 151q-148 -94 -338 -94q-284 0 -458.5 197t-174.5 518zM244 684q0 -270 135.5 -434t359.5 -164q125 0 234 59l-142 111l66 84l168 -127q170 159 170 469 q0 270 -136 434t-360 164t-359.5 -163.5t-135.5 -432.5z" />
<glyph unicode="R" horiz-adv-x="1314" d="M164 0v1366h573q117 0 189 -19t129 -65q112 -90 112 -274q0 -122 -50.5 -201t-164.5 -131q85 -35 125 -105t49 -198l13 -178q6 -78 23 -116.5t61 -78.5h-181q-27 61 -36 156l-13 155q-13 176 -70.5 241.5t-197.5 65.5h-424v-618h-137zM301 727h412q93 0 149 15.5t94 50.5 q78 69 78 196q0 126 -78 195q-38 35 -93 50t-150 15h-412v-522z" />
<glyph unicode="S" horiz-adv-x="1191" d="M82 453h137q3 -179 102 -273t283 -94q163 0 260 77.5t97 207.5q0 102 -65.5 160t-217.5 90l-246 53q-163 35 -241 119.5t-78 224.5q0 175 127.5 277t345.5 102q223 0 346 -105t135 -305h-137q-5 126 -72 195q-98 98 -276 98q-151 0 -241.5 -71t-90.5 -191 q0 -90 53 -141.5t172 -77.5l256 -56q102 -22 165 -49t105 -69q97 -90 97 -244q0 -186 -137 -299t-363 -113q-286 0 -426 178q-45 59 -66 130.5t-24 175.5z" />
<glyph unicode="T" horiz-adv-x="1032" d="M14 1249v117h1006v-117h-434v-1249h-137v1249h-435z" />
<glyph unicode="U" horiz-adv-x="1335" d="M164 483v883h137v-893q0 -171 72 -258q103 -119 295 -119t295 119q71 85 71 258v893h137v-883q0 -132 -27 -215t-91 -149q-139 -139 -385 -139t-385 139q-66 66 -92.5 148.5t-26.5 215.5z" />
<glyph unicode="V" horiz-adv-x="1183" d="M27 1366h149q27 -77 161 -464t206 -593q17 -54 55 -159q14 44 94 276l320 940h145l-491 -1366h-138z" />
<glyph unicode="W" horiz-adv-x="1712" d="M27 1366h139l199 -809q90 -374 98 -412q3 9 5.5 19l4 16t2.5 12.5t2 8.5q34 136 75.5 297t72.5 281.5t78.5 300.5t74.5 286h156l215 -795q58 -215 70 -258l47 -168q3 16 41 177q29 123 53 235l188 809h135l-342 -1366h-153l-244 885q-20 72 -37.5 140t-29 109t-25.5 89 q-71 -289 -90 -361l-223 -862h-152z" />
<glyph unicode="X" horiz-adv-x="1124" d="M20 0l474 688l-459 678h160l370 -578l379 578h156l-465 -678l469 -688h-160l-381 590l-381 -590h-162z" />
<glyph unicode="Y" horiz-adv-x="1165" d="M0 1366h160l426 -647l420 647h157l-514 -768v-598h-129v598z" />
<glyph unicode="Z" horiz-adv-x="1171" d="M57 0v84l875 1165h-776v117h938v-117l-854 -1132h878v-117h-1061z" />
<glyph unicode="[" horiz-adv-x="628" d="M150 -334v1700h342v-109h-216v-1482h216v-109h-342z" />
<glyph unicode="\" horiz-adv-x="802" d="M86 1393h121l516 -1393h-121z" />
<glyph unicode="]" horiz-adv-x="628" d="M137 -225h215v1482h-215v109h342v-1700h-342v109z" />
<glyph unicode="^" d="M70 776l364 592h154l364 -592h-129l-313 502l-313 -502h-127z" />
<glyph unicode="_" d="M0 -152h1024v-90h-1024v90z" />
<glyph unicode="`" d="M262 1393h176l158 -260h-107z" />
<glyph unicode="a" horiz-adv-x="1052" d="M88 258q0 64 24 120.5t66 92.5q70 61 219 84l293 47q56 9 67 23t11 75q0 110 -57.5 158.5t-188.5 48.5q-129 0 -190.5 -52t-67.5 -167h-131q4 163 104.5 245.5t292.5 82.5q180 0 272.5 -75t92.5 -222v-555q0 -84 51 -84q23 0 60 12v-96q-52 -12 -93 -12q-103 0 -133 82 q-8 25 -8 79q-126 -172 -358 -172q-151 0 -238.5 76.5t-87.5 208.5zM217 262q0 -85 58.5 -135.5t158.5 -50.5q89 0 165.5 37.5t123.5 105.5q49 71 49 180v113l-354 -61q-201 -34 -201 -189z" />
<glyph unicode="b" horiz-adv-x="1124" d="M150 0v1366h122v-537q65 97 145 142t189 45q193 0 308.5 -139.5t115.5 -372.5q0 -242 -119.5 -386.5t-318.5 -144.5q-104 0 -180.5 44t-139.5 139v-156h-122zM272 500q0 -198 83.5 -308t234.5 -110q149 0 233 110t84 302q0 194 -84 303.5t-233 109.5q-148 0 -233 -109 t-85 -298z" />
<glyph unicode="c" horiz-adv-x="1013" d="M94 492q0 236 124.5 380t328.5 144q161 0 267 -90t126 -244h-125q-19 107 -91 166t-183 59q-149 0 -236.5 -109t-87.5 -296q0 -193 88.5 -306.5t239.5 -113.5q115 0 187.5 68t92.5 196h119q-28 -177 -134.5 -275t-270.5 -98q-203 0 -324 141.5t-121 377.5z" />
<glyph unicode="d" horiz-adv-x="1122" d="M94 496q0 232 120.5 376t313.5 144q197 0 320 -172v522h123v-1366h-123v143q-64 -89 -140.5 -129.5t-179.5 -40.5q-196 0 -315 144t-119 379zM217 496q0 -195 83.5 -304.5t231.5 -109.5q146 0 231 109t85 298q0 197 -83.5 307.5t-232.5 110.5q-148 0 -231.5 -109.5 t-83.5 -301.5z" />
<glyph unicode="e" horiz-adv-x="1052" d="M94 489q0 236 122 381.5t319 145.5q142 0 247.5 -76t143.5 -205q32 -102 32 -260h-741q6 -186 92 -289.5t234 -103.5q215 0 291 227h124q-105 -336 -419 -336q-204 0 -324.5 139.5t-120.5 376.5zM223 573h611q-9 158 -86.5 246t-208.5 88q-129 0 -211 -86.5t-105 -247.5z " />
<glyph unicode="f" horiz-adv-x="512" d="M35 891v98h141v166q0 121 52.5 174t172.5 53q43 0 70 -4v-110q-35 6 -51 6q-67 0 -91 -27t-24 -102v-156h166v-98h-166v-891h-129v891h-141z" />
<glyph unicode="g" horiz-adv-x="1126" d="M94 512q0 220 125 362t318 142q107 0 183.5 -40.5t139.5 -131.5v145h117v-878q0 -126 -22 -200.5t-76 -129.5q-121 -121 -340 -121q-166 0 -269.5 71.5t-113.5 192.5h129q9 -75 74.5 -115t183.5 -40q161 0 239 79.5t78 243.5v92q-134 -168 -328 -168q-193 0 -315.5 139 t-122.5 357zM223 516q0 -175 88.5 -283t231.5 -108q141 0 229 107.5t88 277.5q0 182 -86.5 289.5t-232.5 107.5q-141 0 -229.5 -108.5t-88.5 -282.5z" />
<glyph unicode="h" horiz-adv-x="1062" d="M150 0v1366h122v-504q109 154 308 154q86 0 157.5 -29.5t114.5 -83.5q61 -75 61 -246v-657h-122v641q0 123 -39 182q-26 40 -75.5 62t-111.5 22q-128 0 -210.5 -84.5t-82.5 -216.5v-606h-122z" />
<glyph unicode="i" horiz-adv-x="423" d="M150 0v989h122v-989h-122zM150 1202v164h122v-164h-122z" />
<glyph unicode="j" horiz-adv-x="423" d="M-18 -215h47q75 0 99 32.5t24 135.5v1036h122v-1044q0 -84 -8 -121.5t-33 -69.5q-50 -67 -174 -67h-77v98zM152 1202v164h122v-164h-122z" />
<glyph unicode="k" horiz-adv-x="999" d="M150 0v1366h122v-844l504 467h164l-405 -371l421 -618h-149l-361 545l-174 -160v-385h-122z" />
<glyph unicode="l" horiz-adv-x="430" d="M150 0v1366h129v-1366h-129z" />
<glyph unicode="m" horiz-adv-x="1626" d="M150 0v989h122v-127q51 81 120 117.5t169 36.5q114 0 183 -42t104 -134q53 91 129 133.5t186 42.5q159 0 246 -96q40 -43 54 -93.5t14 -148.5v-678h-123v678q0 229 -211 229q-266 0 -266 -332v-575h-123v678q0 113 -41 162q-55 67 -164 67q-127 0 -202 -81t-75 -218v-608 h-122z" />
<glyph unicode="n" horiz-adv-x="1056" d="M150 0v989h122v-139q60 89 132 127.5t178 38.5q171 0 260 -103q35 -41 50 -95.5t15 -141.5v-676h-123v647q0 77 -10.5 119.5t-36.5 73.5q-58 67 -170 67q-132 0 -215 -86q-43 -43 -61.5 -99t-18.5 -140v-582h-122z" />
<glyph unicode="o" horiz-adv-x="1099" d="M94 496q0 233 125.5 376.5t329.5 143.5q209 0 333 -143.5t124 -385.5q0 -229 -126.5 -371.5t-328.5 -142.5q-205 0 -331 144t-126 379zM223 496q0 -189 89 -301.5t237 -112.5t238 111.5t90 295.5q0 192 -88.5 305t-239.5 113q-148 0 -237 -112t-89 -299z" />
<glyph unicode="p" horiz-adv-x="1120" d="M150 -313v1302h122v-141q66 88 143 128t181 40q194 0 311 -139t117 -369q0 -238 -120 -386.5t-312 -148.5q-100 0 -173.5 39.5t-146.5 132.5v-458h-122zM272 500q0 -197 83.5 -307.5t232.5 -110.5q146 0 229.5 111t83.5 303q0 191 -83.5 301t-229.5 110t-231 -109 t-85 -298z" />
<glyph unicode="q" horiz-adv-x="1122" d="M94 489q0 239 120.5 383t320.5 144q206 0 315 -178v151h123v-1302h-123v471q-114 -185 -334 -185q-193 0 -307.5 140t-114.5 376zM217 496q0 -189 86.5 -301.5t231.5 -112.5q143 0 229 111.5t86 295.5t-82 301t-236 117q-143 0 -229 -112t-86 -299z" />
<glyph unicode="r" horiz-adv-x="638" d="M150 0v989h122l-6 -178q54 104 118.5 148.5t164.5 44.5q17 0 41 -3v-122q-12 2 -29 2q-138 0 -223 -121q-66 -88 -66 -238v-522h-122z" />
<glyph unicode="s" horiz-adv-x="964" d="M92 315h129q12 -233 277 -233q114 0 180.5 51t66.5 137q0 59 -38.5 96.5t-120.5 57.5l-238 57q-229 54 -229 252q0 130 98.5 206.5t267.5 76.5q171 0 266.5 -79.5t104.5 -231.5h-123q-19 105 -79.5 153.5t-172.5 48.5q-110 0 -171.5 -45t-61.5 -123q0 -57 35 -91.5 t112 -53.5l246 -59q121 -29 177 -88.5t56 -159.5q0 -141 -104.5 -227.5t-277.5 -86.5q-108 0 -193.5 33t-136.5 96q-35 41 -51 89t-19 124z" />
<glyph unicode="t" horiz-adv-x="518" d="M41 891v98h141v289h129v-289h154v-98h-154v-698q0 -53 14 -72t54 -19q29 0 86 13v-113q-73 -16 -121 -16q-89 0 -125.5 43.5t-36.5 152.5v709h-141z" />
<glyph unicode="u" horiz-adv-x="1056" d="M150 313v676h122v-647q0 -76 10.5 -118.5t36.5 -73.5q59 -68 170 -68q133 0 216 86q42 42 60.5 99t18.5 141v581h123v-989h-123v139q-60 -89 -131.5 -127.5t-177.5 -38.5q-171 0 -260 103q-35 41 -50 95.5t-15 141.5z" />
<glyph unicode="v" horiz-adv-x="917" d="M14 989h142q225 -621 307 -842q32 87 51 142q28 78 31 84q5 15 17.5 45.5t17.5 46.5l186 524h137l-381 -989h-129z" />
<glyph unicode="w" horiz-adv-x="1353" d="M14 989h136l196 -667q25 -91 37 -164q10 56 39 164l192 667h125l183 -667q21 -81 36 -164q21 109 39 164l207 667h137l-329 -989h-119l-176 637q-31 111 -45 188q-20 -94 -47 -188l-181 -637h-122z" />
<glyph unicode="x" horiz-adv-x="911" d="M6 0l379 516l-340 473h148l264 -375l266 375h149l-344 -473l377 -516h-149l-301 422l-299 -422h-150z" />
<glyph unicode="y" horiz-adv-x="905" d="M14 989h133l236 -616q52 -137 72 -238q5 22 10 41t14 45.5t14 40.5t20 54.5t22 58.5l229 614h129l-438 -1118q-47 -121 -99.5 -166t-146.5 -45q-34 0 -86 8v107q49 -6 70 -6q52 0 84 28t61 99l53 131z" />
<glyph unicode="z" horiz-adv-x="884" d="M59 0v90l613 793h-568v106h719v-96l-606 -787h633v-106h-791z" />
<glyph unicode="{" d="M295 459v98q65 20 92 64.5t27 130.5v368q0 154 67 214.5t232 60.5h24v-115q-110 -4 -151 -46t-41 -149v-352q0 -95 -24.5 -145t-86.5 -82q61 -32 86 -84.5t25 -149.5v-338q0 -115 40.5 -158t151.5 -46v-109q-10 -2 -20 -2q-102 0 -160 18t-90 60q-53 67 -53 229v334 q0 91 -26.5 135t-92.5 64z" />
<glyph unicode="|" d="M446 -342v1708h134v-1708h-134z" />
<glyph unicode="}" d="M287 -264q110 5 151 46t41 148v351q0 96 24.5 146.5t86.5 82.5q-61 32 -86 84t-25 149v336q0 117 -40 159.5t-152 45.5v111q105 0 161.5 -13t90.5 -45q38 -35 54.5 -93t16.5 -154v-336q0 -89 26.5 -133t92.5 -64v-100q-65 -19 -92 -63t-27 -130v-368q0 -155 -66.5 -216 t-232.5 -61q-12 0 -24 2v115z" />
<glyph unicode="~" horiz-adv-x="1366" d="M195 1257q108 220 272 220q73 0 238 -82q84 -42 123 -56t75 -14q57 0 103.5 36.5t93.5 119.5l74 -56q-101 -219 -283 -219q-44 0 -85.5 16t-172.5 81q-107 55 -172 55q-56 0 -101 -37t-92 -121z" />
<glyph unicode="&#xa1;" horiz-adv-x="491" d="M164 811v178h164v-178h-164zM174 78l27 571h90l26 -571v-453h-143v453z" />
<glyph unicode="&#xa2;" horiz-adv-x="1146" d="M147 684q0 216 104.5 356.5t283.5 165.5v176h92v-172q151 -8 251 -99.5t115 -236.5h-123q-13 95 -78 155t-165 71v-824q103 9 171 78.5t83 184.5h118q-23 -163 -122.5 -263t-249.5 -110v-184h-92v188q-180 20 -284 158t-104 356zM270 694q0 -172 68.5 -278.5 t196.5 -134.5v815q-128 -26 -196.5 -130.5t-68.5 -271.5z" />
<glyph unicode="&#xa3;" horiz-adv-x="1146" d="M109 61q107 66 166 154.5t59 185.5q0 106 -58 222h-167v92h133l-11 26q-39 104 -50 144t-11 94q0 175 123 288t313 113q245 0 357 -190q46 -79 59 -234h-135q-1 148 -75 228t-208 80q-129 0 -213 -77.5t-84 -197.5q0 -104 80 -274h352v-92h-321q35 -118 35 -191 q0 -74 -31 -141t-109 -164q86 29 150 29q62 0 168 -29q124 -33 172 -33q81 0 170 72l65 -105q-116 -88 -245 -88q-36 0 -66 6.5t-123 34.5q-115 37 -192 37q-60 0 -114 -17.5t-126 -60.5z" />
<glyph unicode="&#xa4;" horiz-adv-x="1398" d="M143 1178l74 73l189 -190q84 60 148.5 83t143.5 23q80 0 144 -23t147 -83l191 188l71 -71l-188 -189q104 -138 104 -291q0 -76 -22 -139t-78 -147l186 -189l-71 -73l-189 188q-134 -105 -286 -105q-76 0 -145.5 24.5t-153.5 80.5l-187 -186l-71 71l182 189 q-103 133 -103 290q0 75 24 140t81 147zM348 700q0 -146 102.5 -249t247.5 -103t248 103t103 249q0 145 -103 250t-244 105q-149 0 -251.5 -103t-102.5 -252z" />
<glyph unicode="&#xa5;" horiz-adv-x="1146" d="M55 1366h160l180 -334h324l178 334h158l-187 -334h164v-92h-217l-139 -250h274v-92h-327v-598h-129v598h-334v92h280l-141 250h-221v92h168zM446 940l113 -207l111 207h-224z" />
<glyph unicode="&#xa6;" d="M446 313h134v-655h-134v655zM446 688v678h134v-678h-134z" />
<glyph unicode="&#xa7;" horiz-adv-x="1189" d="M150 639q0 176 178 272q-72 87 -72 191q0 129 92 210t240 81q152 0 243.5 -86.5t106.5 -243.5h-137q-12 101 -67.5 154t-147.5 53q-85 0 -139 -47t-54 -119q0 -54 30 -93t105 -83l273 -162q133 -79 186 -150t53 -170q0 -175 -182 -268q45 -58 63.5 -104t18.5 -101 q0 -133 -100 -223t-248 -90q-96 0 -177 38t-128 107q-55 77 -60 205h135q12 -107 72.5 -167t157.5 -60q91 0 151 53t60 133q0 58 -32.5 100t-117.5 93l-239 141q-143 85 -203.5 162t-60.5 174zM287 655q0 -74 56 -131.5t222 -152.5l209 -119q129 74 129 186q0 61 -41 110 t-143 109l-307 181q-125 -66 -125 -183z" />
<glyph unicode="&#xa8;" d="M279 1174v178h129v-178h-129zM616 1174v178h129v-178h-129z" />
<glyph unicode="&#xa9;" horiz-adv-x="1607" d="M98 682q0 146 56 277t151.5 225t228 149.5t279.5 55.5q186 0 346 -95.5t254 -258.5t94 -353q0 -143 -55.5 -273.5t-150 -225t-225 -150.5t-273.5 -56q-190 0 -352.5 95t-257.5 257.5t-95 352.5zM174 682q0 -171 84.5 -317.5t229.5 -232t315 -85.5q127 0 243.5 50.5 t201 135.5t134.5 203t50 248q0 127 -50 244.5t-133.5 203t-198.5 136.5t-239 51q-175 0 -321.5 -84.5t-231 -231t-84.5 -321.5zM418 684q0 188 110 305t287 117q140 0 241 -80t113 -201h-73q-20 94 -96 148.5t-185 54.5q-138 0 -222.5 -95t-84.5 -249t83.5 -248t219.5 -94 q124 0 203 70t96 194h72q-10 -153 -113.5 -247.5t-257.5 -94.5q-175 0 -284 116.5t-109 303.5z" />
<glyph unicode="&#xaa;" horiz-adv-x="688" d="M63 707q0 76 48 119.5t151 60.5l180 28q32 4 37.5 11.5t5.5 40.5q0 63 -33.5 89.5t-111.5 26.5t-113.5 -30.5t-38.5 -100.5h-96q3 209 252 209q236 0 236 -184v-328q0 -41 24 -41q9 0 45 10v-71q-41 -10 -65 -10q-45 0 -68 18.5t-29 60.5q-51 -48 -98.5 -67t-114.5 -19 q-97 0 -154 47.5t-57 129.5zM160 709q0 -47 34 -76t91 -29q91 0 146.5 51t55.5 133v58l-211 -33q-116 -18 -116 -104z" />
<glyph unicode="&#xab;" horiz-adv-x="915" d="M96 453v108l332 283v-146l-231 -192l231 -191v-145zM467 449v110l332 283v-148l-232 -190l232 -191v-147z" />
<glyph unicode="&#xac;" d="M68 446v117h886v-563h-129v446h-757z" />
<glyph unicode="&#xad;" horiz-adv-x="495" d="M0 446v117h496v-117h-496z" />
<glyph unicode="&#xae;" horiz-adv-x="1607" d="M98 682q0 194 95 357t259 256.5t359 93.5q187 0 347.5 -95.5t254.5 -258.5t94 -353q0 -143 -55.5 -273.5t-150 -225t-225 -150.5t-273.5 -56q-190 0 -352.5 95t-257.5 257.5t-95 352.5zM174 682q0 -171 84.5 -317.5t229.5 -232t315 -85.5q127 0 243.5 50.5t201 135.5 t134.5 202.5t50 246.5q0 128 -50 246t-133.5 203.5t-198.5 136.5t-239 51q-175 0 -321.5 -84.5t-231 -231t-84.5 -321.5zM500 270v809h340q137 0 209.5 -57t72.5 -164q0 -143 -149 -196q80 -26 106 -77t31 -182q1 -61 6.5 -85t18.5 -48h-88q-18 27 -23 150q-5 86 -16 121 t-41 55q-50 33 -164 33h-215v-359h-88zM588 690h217q229 0 229 164q0 83 -51.5 122.5t-159.5 39.5h-235v-326z" />
<glyph unicode="&#xaf;" d="M221 1208v109h580v-109h-580z" />
<glyph unicode="&#xb0;" d="M229 1073q0 118 83 200.5t202 82.5q118 0 200.5 -83t82.5 -202q0 -115 -83.5 -199t-199.5 -84q-118 0 -201.5 83t-83.5 202zM297 1073q0 -89 64 -153t153 -64q86 0 150.5 63.5t64.5 149.5q0 92 -63.5 156.5t-155.5 64.5q-87 0 -150 -64t-63 -153z" />
<glyph unicode="&#xb1;" d="M51 127v76h920v-76h-920zM51 680v76h420v391h78v-391h422v-76h-422v-387h-78v387h-420z" />
<glyph unicode="&#xb2;" horiz-adv-x="737" d="M86 547v31q0 105 57 182q31 39 77 73t140 87q106 59 142.5 102.5t36.5 110.5q0 72 -43 112.5t-119 40.5q-172 0 -172 -188v-8h-103q1 135 74.5 209.5t202.5 74.5q119 0 190.5 -65t71.5 -172q0 -89 -49 -151t-178 -134q-127 -69 -171 -111.5t-59 -111.5h453v-82h-551z" />
<glyph unicode="&#xb3;" horiz-adv-x="737" d="M53 788q0 7 2 11h97q2 -91 50.5 -140t137.5 -49q80 0 132 47.5t52 120.5q0 78 -52 120t-150 42q-27 0 -52 -2v76q25 -2 54 -2q83 0 130.5 38t47.5 105q0 61 -45 99t-119 38q-79 0 -123.5 -45t-44.5 -125q0 -8 2 -14h-96q1 126 71 196t193 70q114 0 185 -61t71 -158 q0 -113 -111 -172q66 -28 102 -79t36 -120q0 -110 -81.5 -183t-205.5 -73q-125 0 -204 72.5t-79 187.5z" />
<glyph unicode="&#xb4;" d="M414 1133l157 260h177l-228 -260h-106z" />
<glyph unicode="&#xb5;" d="M113 -338v1321h114v-565q0 -108 15.5 -163t58.5 -99q80 -86 199 -86q131 0 214 103t83 267v543h114v-983h-114v199q-89 -228 -299 -228q-91 0 -154.5 37.5t-116.5 120.5v-467h-114z" />
<glyph unicode="&#xb6;" horiz-adv-x="1107" d="M47 999q0 100 46.5 184t127.5 128q94 55 268 55h478v-63h-123v-1534h-76v1534h-231v-1534h-76v870h-35q-166 0 -272.5 101t-106.5 259z" />
<glyph unicode="&#xb7;" horiz-adv-x="475" d="M150 403v205h174v-205h-174z" />
<glyph unicode="&#xb8;" d="M326 -334l22 51q86 -41 168 -41q55 0 91 26.5t36 66.5q0 36 -29 58.5t-75 22.5q-44 0 -95 -22l-34 29l92 125h61l-67 -93q48 11 79 11q66 0 108 -35t42 -90q0 -66 -56.5 -109t-144.5 -43q-94 0 -198 43z" />
<glyph unicode="&#xb9;" horiz-adv-x="737" d="M137 1149v65q109 0 159.5 35t57.5 117h76v-819h-96v602h-197z" />
<glyph unicode="&#xba;" horiz-adv-x="716" d="M68 846q0 141 80 228t210 87q132 0 211.5 -87t79.5 -232q0 -138 -81 -225t-210 -87q-130 0 -210 87.5t-80 228.5zM164 846q0 -108 52.5 -173t141.5 -65q88 0 141.5 65t53.5 171q0 110 -53 174.5t-142 64.5t-141.5 -64t-52.5 -173z" />
<glyph unicode="&#xbb;" horiz-adv-x="915" d="M117 170v145l231 191l-231 192v146l332 -283v-108zM487 166v147l232 191l-232 190v148l332 -283v-110z" />
<glyph unicode="&#xbc;" horiz-adv-x="1753" d="M137 1149v65q109 0 159.5 35t57.5 117h76v-819h-96v602h-197zM395 0l865 1366h98l-862 -1366h-101zM1092 199v73l383 539h79v-535h119v-77h-119v-199h-92v199h-370zM1194 276h268v173l2 219q-96 -143 -270 -392z" />
<glyph unicode="&#xbd;" horiz-adv-x="1753" d="M137 1149v65q109 0 159.5 35t57.5 117h76v-819h-96v602h-197zM395 0l865 1366h98l-862 -1366h-101zM1104 0v31q0 105 57 182q31 40 76 73t141 87q105 60 141.5 104t36.5 111q0 71 -42.5 111t-118.5 40q-172 0 -172 -186v-8h-103q1 133 74.5 207.5t202.5 74.5 q118 0 190 -64.5t72 -170.5q0 -90 -49.5 -152.5t-177.5 -134.5t-171.5 -113.5t-58.5 -109.5h453v-82h-551z" />
<glyph unicode="&#xbe;" horiz-adv-x="1753" d="M53 788q0 7 2 11h97q2 -91 50.5 -140t137.5 -49q80 0 132 47.5t52 120.5q0 78 -52 120t-150 42q-27 0 -52 -2v76q25 -2 54 -2q83 0 130.5 38t47.5 105q0 61 -45 99t-119 38q-79 0 -123.5 -45t-44.5 -125q0 -8 2 -14h-96q1 126 71 196t193 70q114 0 185 -61t71 -158 q0 -113 -111 -172q66 -28 102 -79t36 -120q0 -110 -81.5 -183t-205.5 -73q-125 0 -204 72.5t-79 187.5zM395 0l865 1366h98l-862 -1366h-101zM1092 199v73l383 539h79v-535h119v-77h-119v-199h-92v199h-370zM1194 276h268v173l2 219q-96 -143 -270 -392z" />
<glyph unicode="&#xbf;" horiz-adv-x="960" d="M61 -41q0 93 39 165.5t140 162.5q56 51 82.5 78.5t50 57.5t31 61.5t11.5 67t5 97.5h123v-45q0 -114 -36.5 -190.5t-131.5 -161.5q-104 -94 -140 -151.5t-36 -131.5q0 -110 74.5 -182t189.5 -72q97 0 170.5 51t99.5 136q11 37 13.5 58t3.5 85h135v-29 q0 -190 -116.5 -303.5t-311.5 -113.5q-177 0 -286.5 99.5t-109.5 260.5zM395 811v178h164v-178h-164z" />
<glyph unicode="&#xc0;" horiz-adv-x="1263" d="M27 0l528 1366h143l539 -1366h-141l-168 430h-600l-162 -430h-139zM369 539h516l-262 686zM377 1724h164l139 -254h-98z" />
<glyph unicode="&#xc1;" horiz-adv-x="1263" d="M27 0l528 1366h143l539 -1366h-141l-168 430h-600l-162 -430h-139zM369 539h516l-262 686zM590 1470l139 254h164l-205 -254h-98z" />
<glyph unicode="&#xc2;" horiz-adv-x="1263" d="M27 0l528 1366h143l539 -1366h-141l-168 430h-600l-162 -430h-139zM336 1468l217 258h141l219 -258h-139l-149 181l-152 -181h-137zM369 539h516l-262 686z" />
<glyph unicode="&#xc3;" horiz-adv-x="1263" d="M27 0l528 1366h143l539 -1366h-141l-168 430h-600l-162 -430h-139zM348 1513q18 181 146 181q28 0 69 -13l168 -53q40 -12 53 -12q46 0 64 70h94q-9 -84 -49.5 -134.5t-99.5 -50.5q-27 0 -88 19l-154 51q-24 8 -45 8q-50 0 -62 -66h-96zM369 539h516l-262 686z" />
<glyph unicode="&#xc4;" horiz-adv-x="1263" d="M27 0l528 1366h143l539 -1366h-141l-168 430h-600l-162 -430h-139zM315 1507v179h150v-179h-150zM369 539h516l-262 686zM786 1507v179h150v-179h-150z" />
<glyph unicode="&#xc5;" horiz-adv-x="1263" d="M27 0l528 1366h143l539 -1366h-141l-168 430h-600l-162 -430h-139zM369 539h516l-262 686zM487 1597q0 61 44.5 105.5t105.5 44.5q63 0 107 -44.5t44 -107.5q0 -60 -44.5 -103.5t-104.5 -43.5q-63 0 -107.5 43.5t-44.5 105.5zM563 1597q0 -29 22.5 -51t53.5 -22 q30 0 52 21.5t22 51.5q0 31 -21.5 52.5t-52.5 21.5t-53.5 -21.5t-22.5 -52.5z" />
<glyph unicode="&#xc6;" horiz-adv-x="1851" d="M27 0l526 1366h1194v-117h-774v-493h710v-109h-710v-530h792v-117h-929v424h-514l-160 -424h-135zM362 532h474v717h-203z" />
<glyph unicode="&#xc7;" horiz-adv-x="1363" d="M106 682q0 330 166.5 522.5t452.5 192.5q212 0 357 -111.5t186 -306.5h-142q-35 141 -143.5 221t-263.5 80q-220 0 -347.5 -162t-127.5 -442q0 -270 127.5 -430t343.5 -160q175 0 292 107.5t146 295.5h133q-37 -239 -180 -375t-367 -145l-57 -80q62 9 78 9 q69 0 112 -35.5t43 -93.5q0 -69 -57 -112.5t-149 -43.5q-95 0 -205 45l22 51q93 -41 170 -41q57 0 94 26.5t37 67.5q0 37 -29.5 59.5t-76.5 22.5q-42 0 -96 -20l-35 29l84 118q-263 14 -415.5 204t-152.5 507z" />
<glyph unicode="&#xc8;" horiz-adv-x="1179" d="M164 0v1366h913v-117h-776v-493h713v-109h-713v-530h793v-117h-930zM389 1724h164l139 -254h-98z" />
<glyph unicode="&#xc9;" horiz-adv-x="1179" d="M164 0v1366h913v-117h-776v-493h713v-109h-713v-530h793v-117h-930zM567 1470l140 254h163l-204 -254h-99z" />
<glyph unicode="&#xca;" horiz-adv-x="1179" d="M164 0v1366h913v-117h-776v-493h713v-109h-713v-530h793v-117h-930zM348 1468l217 258h142l219 -258h-140l-149 181l-152 -181h-137z" />
<glyph unicode="&#xcb;" horiz-adv-x="1179" d="M164 0v1366h913v-117h-776v-493h713v-109h-713v-530h793v-117h-930zM328 1507v179h149v-179h-149zM799 1507v179h149v-179h-149z" />
<glyph unicode="&#xcc;" horiz-adv-x="464" d="M-23 1724h164l140 -254h-99zM164 0v1366h137v-1366h-137z" />
<glyph unicode="&#xcd;" horiz-adv-x="464" d="M164 0v1366h137v-1366h-137zM197 1470l139 254h164l-205 -254h-98z" />
<glyph unicode="&#xce;" horiz-adv-x="464" d="M-49 1468l217 258h141l219 -258h-139l-149 181l-152 -181h-137zM164 0v1366h137v-1366h-137z" />
<glyph unicode="&#xcf;" horiz-adv-x="464" d="M-39 1507v179h135v-179h-135zM164 0v1366h137v-1366h-137zM383 1507v179h135v-179h-135z" />
<glyph unicode="&#xd0;" horiz-adv-x="1357" d="M72 647v109h92v610h500q169 0 283.5 -52t185.5 -159q120 -184 120 -467q0 -304 -143 -493q-77 -103 -188 -149t-287 -46h-471v647h-92zM301 117h303q160 0 249.5 34.5t152.5 120.5q110 148 110 412q0 142 -31 255t-88 181q-57 67 -138.5 98t-203.5 31h-354v-493h387v-109 h-387v-530z" />
<glyph unicode="&#xd1;" horiz-adv-x="1376" d="M164 0v1366h141l795 -1196q-10 185 -10 561v635h122v-1366h-141l-795 1200q9 -117 9 -215l2 -166v-819h-123zM432 1513q18 181 146 181q28 0 69 -13l168 -53q40 -12 53 -12q46 0 64 70h94q-9 -84 -49.5 -134.5t-99.5 -50.5q-28 0 -89 19l-153 51q-24 8 -45 8 q-50 0 -62 -66h-96z" />
<glyph unicode="&#xd2;" horiz-adv-x="1478" d="M106 682q0 211 78.5 373.5t222.5 252t330 89.5q289 0 462 -197t173 -526q0 -313 -176 -509t-457 -196q-284 0 -458.5 196.5t-174.5 516.5zM244 684q0 -270 135.5 -434t359.5 -164q221 0 358.5 163t137.5 427q0 270 -123 426q-64 83 -164.5 130.5t-210.5 47.5 q-109 0 -205.5 -46.5t-164.5 -131.5q-123 -154 -123 -418zM492 1724h163l140 -254h-99z" />
<glyph unicode="&#xd3;" horiz-adv-x="1478" d="M106 682q0 211 78.5 373.5t222.5 252t330 89.5q289 0 462 -197t173 -526q0 -313 -176 -509t-457 -196q-284 0 -458.5 196.5t-174.5 516.5zM244 684q0 -270 135.5 -434t359.5 -164q221 0 358.5 163t137.5 427q0 270 -123 426q-64 83 -164.5 130.5t-210.5 47.5 q-109 0 -205.5 -46.5t-164.5 -131.5q-123 -154 -123 -418zM702 1470l140 254h164l-205 -254h-99z" />
<glyph unicode="&#xd4;" horiz-adv-x="1478" d="M106 682q0 211 78.5 373.5t222.5 252t330 89.5q289 0 462 -197t173 -526q0 -313 -176 -509t-457 -196q-284 0 -458.5 196.5t-174.5 516.5zM244 684q0 -270 135.5 -434t359.5 -164q221 0 358.5 163t137.5 427q0 270 -123 426q-64 83 -164.5 130.5t-210.5 47.5 q-109 0 -205.5 -46.5t-164.5 -131.5q-123 -154 -123 -418zM463 1468l217 258h141l219 -258h-139l-149 181l-152 -181h-137z" />
<glyph unicode="&#xd5;" horiz-adv-x="1478" d="M106 682q0 211 78.5 373.5t222.5 252t330 89.5q289 0 462 -197t173 -526q0 -313 -176 -509t-457 -196q-284 0 -458.5 196.5t-174.5 516.5zM244 684q0 -270 135.5 -434t359.5 -164q221 0 358.5 163t137.5 427q0 270 -123 426q-64 83 -164.5 130.5t-210.5 47.5 q-109 0 -205.5 -46.5t-164.5 -131.5q-123 -154 -123 -418zM469 1513q18 181 145 181q29 0 70 -13l168 -53q40 -12 53 -12q46 0 64 70h94q-9 -84 -50 -134.5t-100 -50.5q-27 0 -88 19l-153 51q-24 8 -45 8q-50 0 -62 -66h-96z" />
<glyph unicode="&#xd6;" horiz-adv-x="1478" d="M106 682q0 211 78.5 373.5t222.5 252t330 89.5q289 0 462 -197t173 -526q0 -313 -176 -509t-457 -196q-284 0 -458.5 196.5t-174.5 516.5zM244 684q0 -270 135.5 -434t359.5 -164q221 0 358.5 163t137.5 427q0 270 -123 426q-64 83 -164.5 130.5t-210.5 47.5 q-109 0 -205.5 -46.5t-164.5 -131.5q-123 -154 -123 -418zM442 1507v179h150v-179h-150zM913 1507v179h150v-179h-150z" />
<glyph unicode="&#xd7;" d="M129 362l330 330l-328 326l53 53l326 -328l330 330l53 -53l-330 -330l330 -328l-53 -53l-328 330l-330 -330z" />
<glyph unicode="&#xd8;" horiz-adv-x="1478" d="M88 35l156 176q-138 195 -138 473q0 320 174.5 516.5t458.5 196.5q251 0 420 -158l156 174l76 -67l-164 -183q145 -187 145 -481q0 -320 -174.5 -516.5t-458.5 -196.5q-256 0 -430 168l-147 -168zM244 682q0 -215 90 -371l741 832q-137 137 -336 137q-224 0 -359.5 -164 t-135.5 -434zM393 231q64 -69 155.5 -107t190.5 -38q224 0 360 163.5t136 432.5q0 232 -96 383z" />
<glyph unicode="&#xd9;" horiz-adv-x="1335" d="M164 483v883h137v-893q0 -171 72 -258q103 -119 295 -119t295 119q71 85 71 258v893h137v-883q0 -132 -27 -215t-91 -149q-139 -139 -385 -139t-385 139q-66 66 -92.5 148.5t-26.5 215.5zM440 1724h164l139 -254h-98z" />
<glyph unicode="&#xda;" horiz-adv-x="1335" d="M164 483v883h137v-893q0 -171 72 -258q103 -119 295 -119t295 119q71 85 71 258v893h137v-883q0 -132 -27 -215t-91 -149q-139 -139 -385 -139t-385 139q-66 66 -92.5 148.5t-26.5 215.5zM633 1470l139 254h164l-205 -254h-98z" />
<glyph unicode="&#xdb;" horiz-adv-x="1335" d="M164 483v883h137v-893q0 -171 72 -258q103 -119 295 -119t295 119q71 85 71 258v893h137v-883q0 -132 -27 -215t-91 -149q-139 -139 -385 -139t-385 139q-66 66 -92.5 148.5t-26.5 215.5zM406 1468l217 258h141l219 -258h-139l-150 181l-151 -181h-137z" />
<glyph unicode="&#xdc;" horiz-adv-x="1335" d="M164 483v883h137v-893q0 -171 72 -258q103 -119 295 -119t295 119q71 85 71 258v893h137v-883q0 -132 -27 -215t-91 -149q-139 -139 -385 -139t-385 139q-66 66 -92.5 148.5t-26.5 215.5zM379 1507v179h149v-179h-149zM850 1507v179h149v-179h-149z" />
<glyph unicode="&#xdd;" horiz-adv-x="1165" d="M0 1366h160l426 -647l420 647h157l-514 -768v-598h-129v598zM561 1470l139 254h164l-205 -254h-98z" />
<glyph unicode="&#xde;" horiz-adv-x="1183" d="M164 0v1366h137v-281h385q117 0 189 -20.5t129 -69.5q112 -97 112 -295q0 -197 -112 -294q-57 -50 -129 -70.5t-189 -20.5h-385v-315h-137zM301 432h330q183 0 264 64q84 68 84 204q0 137 -84 205q-81 64 -264 64h-330v-537z" />
<glyph unicode="&#xdf;" horiz-adv-x="1038" d="M150 0v989q0 117 24.5 187t81.5 120q103 86 260 86q159 0 256.5 -90t97.5 -237q0 -183 -174 -277q127 -44 187.5 -132.5t60.5 -229.5q0 -199 -111 -314.5t-303 -115.5q-58 0 -143 14v117q73 -23 129 -23q140 0 222.5 85.5t82.5 230.5q0 155 -87.5 231t-266.5 76h-53v98 h51q138 0 210.5 60t72.5 174q0 101 -66 163t-172 62q-108 0 -170 -62q-39 -36 -53.5 -88t-14.5 -153v-971h-122z" />
<glyph unicode="&#xe0;" horiz-adv-x="1052" d="M88 258q0 64 24 120.5t66 92.5q70 61 219 84l293 47q56 9 67 23t11 75q0 110 -57.5 158.5t-188.5 48.5q-129 0 -190.5 -52t-67.5 -167h-131q4 163 104.5 245.5t292.5 82.5q180 0 272.5 -75t92.5 -222v-555q0 -84 51 -84q23 0 60 12v-96q-52 -12 -93 -12q-103 0 -133 82 q-8 25 -8 79q-126 -172 -358 -172q-151 0 -238.5 76.5t-87.5 208.5zM217 262q0 -85 58.5 -135.5t158.5 -50.5q89 0 165.5 37.5t123.5 105.5q49 71 49 180v113l-354 -61q-201 -34 -201 -189zM291 1393h176l158 -260h-107z" />
<glyph unicode="&#xe1;" horiz-adv-x="1052" d="M88 258q0 64 24 120.5t66 92.5q70 61 219 84l293 47q56 9 67 23t11 75q0 110 -57.5 158.5t-188.5 48.5q-129 0 -190.5 -52t-67.5 -167h-131q4 163 104.5 245.5t292.5 82.5q180 0 272.5 -75t92.5 -222v-555q0 -84 51 -84q23 0 60 12v-96q-52 -12 -93 -12q-103 0 -133 82 q-8 25 -8 79q-126 -172 -358 -172q-151 0 -238.5 76.5t-87.5 208.5zM217 262q0 -85 58.5 -135.5t158.5 -50.5q89 0 165.5 37.5t123.5 105.5q49 71 49 180v113l-354 -61q-201 -34 -201 -189zM475 1133l158 260h176l-227 -260h-107z" />
<glyph unicode="&#xe2;" horiz-adv-x="1052" d="M88 258q0 64 24 120.5t66 92.5q70 61 219 84l293 47q56 9 67 23t11 75q0 110 -57.5 158.5t-188.5 48.5q-129 0 -190.5 -52t-67.5 -167h-131q4 163 104.5 245.5t292.5 82.5q180 0 272.5 -75t92.5 -222v-555q0 -84 51 -84q23 0 60 12v-96q-52 -12 -93 -12q-103 0 -133 82 q-8 25 -8 79q-126 -172 -358 -172q-151 0 -238.5 76.5t-87.5 208.5zM217 262q0 -85 58.5 -135.5t158.5 -50.5q89 0 165.5 37.5t123.5 105.5q49 71 49 180v113l-354 -61q-201 -34 -201 -189zM252 1133l217 260h141l219 -260h-139l-149 182l-152 -182h-137z" />
<glyph unicode="&#xe3;" horiz-adv-x="1052" d="M88 258q0 64 24 120.5t66 92.5q70 61 219 84l293 47q56 9 67 23t11 75q0 110 -57.5 158.5t-188.5 48.5q-129 0 -190.5 -52t-67.5 -167h-131q4 163 104.5 245.5t292.5 82.5q180 0 272.5 -75t92.5 -222v-555q0 -84 51 -84q23 0 60 12v-96q-52 -12 -93 -12q-103 0 -133 82 q-8 25 -8 79q-126 -172 -358 -172q-151 0 -238.5 76.5t-87.5 208.5zM217 262q0 -85 58.5 -135.5t158.5 -50.5q89 0 165.5 37.5t123.5 105.5q49 71 49 180v113l-354 -61q-201 -34 -201 -189zM242 1169q18 179 145 179q26 0 70 -13l168 -53q39 -12 53 -12q45 0 63 69h95 q-9 -83 -50 -132.5t-100 -49.5q-24 0 -88 19l-154 49q-29 10 -45 10q-49 0 -61 -66h-96z" />
<glyph unicode="&#xe4;" horiz-adv-x="1052" d="M88 258q0 64 24 120.5t66 92.5q70 61 219 84l293 47q56 9 67 23t11 75q0 110 -57.5 158.5t-188.5 48.5q-129 0 -190.5 -52t-67.5 -167h-131q4 163 104.5 245.5t292.5 82.5q180 0 272.5 -75t92.5 -222v-555q0 -84 51 -84q23 0 60 12v-96q-52 -12 -93 -12q-103 0 -133 82 q-8 25 -8 79q-126 -172 -358 -172q-151 0 -238.5 76.5t-87.5 208.5zM217 262q0 -85 58.5 -135.5t158.5 -50.5q89 0 165.5 37.5t123.5 105.5q49 71 49 180v113l-354 -61q-201 -34 -201 -189zM287 1174v178h129v-178h-129zM625 1174v178h129v-178h-129z" />
<glyph unicode="&#xe5;" horiz-adv-x="1052" d="M88 258q0 64 24 120.5t66 92.5q70 61 219 84l293 47q56 9 67 23t11 75q0 110 -57.5 158.5t-188.5 48.5q-129 0 -190.5 -52t-67.5 -167h-131q4 163 104.5 245.5t292.5 82.5q180 0 272.5 -75t92.5 -222v-555q0 -84 51 -84q23 0 60 12v-96q-52 -12 -93 -12q-103 0 -133 82 q-8 25 -8 79q-126 -172 -358 -172q-151 0 -238.5 76.5t-87.5 208.5zM217 262q0 -85 58.5 -135.5t158.5 -50.5q89 0 165.5 37.5t123.5 105.5q49 71 49 180v113l-354 -61q-201 -34 -201 -189zM369 1292q0 69 50.5 119.5t119.5 50.5q72 0 122 -50.5t50 -123.5q0 -68 -50.5 -118 t-119.5 -50q-71 0 -121.5 51t-50.5 121zM444 1292q0 -40 28.5 -68t68.5 -28q38 0 66 28t28 66q0 40 -28 68t-66 28q-40 0 -68.5 -28t-28.5 -66z" />
<glyph unicode="&#xe6;" horiz-adv-x="1665" d="M88 266q0 86 45.5 154.5t120.5 97.5q52 19 105.5 28.5t193.5 24.5q57 6 81 8.5t51.5 10t34.5 11.5t15 19t8 27v41q0 72 -16 111q-48 108 -221 108q-123 0 -187 -53.5t-71 -163.5h-121q19 157 119 241.5t270 84.5q109 0 183 -37.5t135 -126.5q77 88 151 126t170 38 q135 0 232 -67t143 -193q41 -107 41 -287h-721q4 -95 15 -146.5t34 -91.5q40 -69 109 -108t151 -39q102 0 181 62t104 161h121q-62 -169 -164 -251.5t-252 -82.5q-120 0 -204.5 52t-149.5 165q-73 -117 -159 -167t-212 -50q-155 0 -245.5 79t-90.5 214zM217 266 q0 -88 56 -136t157 -48q149 0 229.5 81.5t77.5 231.5l-2 113q-48 -13 -115.5 -22.5t-119 -15t-107.5 -18.5t-92.5 -33t-60 -58.5t-23.5 -94.5zM852 567h594q-4 163 -81 251.5t-212 88.5q-94 0 -169.5 -47t-104.5 -123q-24 -64 -27 -170z" />
<glyph unicode="&#xe7;" horiz-adv-x="1013" d="M94 492q0 236 124.5 380t328.5 144q161 0 267 -90t126 -244h-125q-19 107 -91 166t-183 59q-149 0 -236.5 -109t-87.5 -296q0 -193 88.5 -306.5t239.5 -113.5q115 0 187.5 68t92.5 196h119q-28 -172 -129 -269.5t-258 -103.5l-61 -84q48 11 79 11q66 0 108 -35t42 -90 q0 -66 -56.5 -109t-144.5 -43q-94 0 -198 43l22 51q86 -41 168 -41q55 0 91 26.5t36 66.5q0 36 -29 58.5t-75 22.5q-44 0 -95 -22l-34 29l86 118q-185 15 -293.5 154t-108.5 363z" />
<glyph unicode="&#xe8;" horiz-adv-x="1052" d="M94 489q0 236 122 381.5t319 145.5q142 0 247.5 -76t143.5 -205q32 -102 32 -260h-741q6 -186 92 -289.5t234 -103.5q215 0 291 227h124q-105 -336 -419 -336q-204 0 -324.5 139.5t-120.5 376.5zM223 573h611q-9 158 -86.5 246t-208.5 88q-129 0 -211 -86.5t-105 -247.5z M264 1393h176l158 -260h-106z" />
<glyph unicode="&#xe9;" horiz-adv-x="1052" d="M94 489q0 236 122 381.5t319 145.5q142 0 247.5 -76t143.5 -205q32 -102 32 -260h-741q6 -186 92 -289.5t234 -103.5q215 0 291 227h124q-105 -336 -419 -336q-204 0 -324.5 139.5t-120.5 376.5zM223 573h611q-9 158 -86.5 246t-208.5 88q-129 0 -211 -86.5t-105 -247.5z M489 1133l158 260h176l-227 -260h-107z" />
<glyph unicode="&#xea;" horiz-adv-x="1052" d="M94 489q0 236 122 381.5t319 145.5q142 0 247.5 -76t143.5 -205q32 -102 32 -260h-741q6 -186 92 -289.5t234 -103.5q215 0 291 227h124q-105 -336 -419 -336q-204 0 -324.5 139.5t-120.5 376.5zM223 573h611q-9 158 -86.5 246t-208.5 88q-129 0 -211 -86.5t-105 -247.5z M258 1133l217 260h141l220 -260h-140l-149 182l-152 -182h-137z" />
<glyph unicode="&#xeb;" horiz-adv-x="1052" d="M94 489q0 236 122 381.5t319 145.5q142 0 247.5 -76t143.5 -205q32 -102 32 -260h-741q6 -186 92 -289.5t234 -103.5q215 0 291 227h124q-105 -336 -419 -336q-204 0 -324.5 139.5t-120.5 376.5zM223 573h611q-9 158 -86.5 246t-208.5 88q-129 0 -211 -86.5t-105 -247.5z M307 1174v178h129v-178h-129zM645 1174v178h129v-178h-129z" />
<glyph unicode="&#xec;" horiz-adv-x="423" d="M-66 1393h177l157 -260h-106zM150 0v989h122v-989h-122z" />
<glyph unicode="&#xed;" horiz-adv-x="423" d="M150 0v989h122v-989h-122zM174 1133l158 260h176l-227 -260h-107z" />
<glyph unicode="&#xee;" horiz-adv-x="423" d="M-78 1133l217 260h142l219 -260h-140l-149 182l-152 -182h-137zM150 0v989h122v-989h-122z" />
<glyph unicode="&#xef;" horiz-adv-x="423" d="M8 1174v178h117v-178h-117zM150 0v989h122v-989h-122zM313 1174v178h117v-178h-117z" />
<glyph unicode="&#xf0;" horiz-adv-x="1105" d="M94 492q0 238 123.5 381t329.5 143q147 0 246 -86q-36 87 -84.5 147t-122.5 113l-90 -125l-82 57l86 121q-55 30 -117 55l41 103q78 -27 143 -62l92 131l84 -57l-90 -127q172 -122 265.5 -320t93.5 -444q0 -255 -123 -402t-338 -147q-212 0 -334.5 139t-122.5 380z M223 496q0 -193 87.5 -303.5t240.5 -110.5q149 0 240.5 112t91.5 295q0 192 -90 305t-244 113q-152 0 -239 -109.5t-87 -301.5z" />
<glyph unicode="&#xf1;" horiz-adv-x="1056" d="M150 0v989h122v-139q60 89 132 127.5t178 38.5q171 0 260 -103q35 -41 50 -95.5t15 -141.5v-676h-123v647q0 77 -10.5 119.5t-36.5 73.5q-58 67 -170 67q-132 0 -215 -86q-43 -43 -61.5 -99t-18.5 -140v-582h-122zM266 1169q18 179 146 179q25 0 69 -13l168 -53 q39 -12 53 -12q46 0 64 69h94q-9 -83 -49.5 -132.5t-99.5 -49.5q-24 0 -88 19l-154 49q-29 10 -45 10q-50 0 -62 -66h-96z" />
<glyph unicode="&#xf2;" horiz-adv-x="1099" d="M94 496q0 233 125.5 376.5t329.5 143.5q209 0 333 -143.5t124 -385.5q0 -229 -126.5 -371.5t-328.5 -142.5q-205 0 -331 144t-126 379zM223 496q0 -189 89 -301.5t237 -112.5t238 111.5t90 295.5q0 192 -88.5 305t-239.5 113q-148 0 -237 -112t-89 -299zM274 1393h177 l157 -260h-106z" />
<glyph unicode="&#xf3;" horiz-adv-x="1099" d="M94 496q0 233 125.5 376.5t329.5 143.5q209 0 333 -143.5t124 -385.5q0 -229 -126.5 -371.5t-328.5 -142.5q-205 0 -331 144t-126 379zM223 496q0 -189 89 -301.5t237 -112.5t238 111.5t90 295.5q0 192 -88.5 305t-239.5 113q-148 0 -237 -112t-89 -299zM506 1133 l158 260h176l-228 -260h-106z" />
<glyph unicode="&#xf4;" horiz-adv-x="1099" d="M94 496q0 233 125.5 376.5t329.5 143.5q209 0 333 -143.5t124 -385.5q0 -229 -126.5 -371.5t-328.5 -142.5q-205 0 -331 144t-126 379zM223 496q0 -189 89 -301.5t237 -112.5t238 111.5t90 295.5q0 192 -88.5 305t-239.5 113q-148 0 -237 -112t-89 -299zM274 1133 l218 260h141l219 -260h-139l-150 182l-151 -182h-138z" />
<glyph unicode="&#xf5;" horiz-adv-x="1099" d="M94 496q0 233 125.5 376.5t329.5 143.5q209 0 333 -143.5t124 -385.5q0 -229 -126.5 -371.5t-328.5 -142.5q-205 0 -331 144t-126 379zM223 496q0 -189 89 -301.5t237 -112.5t238 111.5t90 295.5q0 192 -88.5 305t-239.5 113q-148 0 -237 -112t-89 -299zM287 1169 q18 179 145 179q26 0 70 -13l168 -53q39 -12 53 -12q45 0 63 69h95q-9 -83 -50 -132.5t-100 -49.5q-24 0 -88 19l-154 49q-29 10 -45 10q-49 0 -61 -66h-96z" />
<glyph unicode="&#xf6;" horiz-adv-x="1099" d="M94 496q0 233 125.5 376.5t329.5 143.5q209 0 333 -143.5t124 -385.5q0 -229 -126.5 -371.5t-328.5 -142.5q-205 0 -331 144t-126 379zM223 496q0 -189 89 -301.5t237 -112.5t238 111.5t90 295.5q0 192 -88.5 305t-239.5 113q-148 0 -237 -112t-89 -299zM330 1174v178 h129v-178h-129zM668 1174v178h129v-178h-129z" />
<glyph unicode="&#xf7;" d="M51 653v76h920v-76h-920zM436 309q0 31 21.5 52.5t52.5 21.5t52.5 -21.5t21.5 -52.5t-21.5 -52t-52.5 -21q-30 0 -52 22t-22 51zM438 1071q0 31 21.5 52.5t52.5 21.5t52.5 -21.5t21.5 -52.5t-21.5 -52.5t-52.5 -21.5q-30 0 -52 22t-22 52z" />
<glyph unicode="&#xf8;" horiz-adv-x="1099" d="M82 18l115 127q-103 136 -103 351q0 233 126 376.5t331 143.5q185 0 311 -123l90 102l68 -61l-100 -111q86 -134 86 -329q0 -233 -125.5 -377t-329.5 -144q-172 0 -295 105l-106 -121zM223 496q0 -152 60 -254l499 561q-90 104 -233 104q-148 0 -237 -112t-89 -299z M336 168q86 -86 215 -86q148 0 237 112.5t89 299.5q0 130 -46 231z" />
<glyph unicode="&#xf9;" horiz-adv-x="1056" d="M150 313v676h122v-647q0 -76 10.5 -118.5t36.5 -73.5q59 -68 170 -68q133 0 216 86q42 42 60.5 99t18.5 141v581h123v-989h-123v139q-60 -89 -131.5 -127.5t-177.5 -38.5q-171 0 -260 103q-35 41 -50 95.5t-15 141.5zM266 1393h176l158 -260h-106z" />
<glyph unicode="&#xfa;" horiz-adv-x="1056" d="M150 313v676h122v-647q0 -76 10.5 -118.5t36.5 -73.5q59 -68 170 -68q133 0 216 86q42 42 60.5 99t18.5 141v581h123v-989h-123v139q-60 -89 -131.5 -127.5t-177.5 -38.5q-171 0 -260 103q-35 41 -50 95.5t-15 141.5zM494 1133l157 260h176l-227 -260h-106z" />
<glyph unicode="&#xfb;" horiz-adv-x="1056" d="M150 313v676h122v-647q0 -76 10.5 -118.5t36.5 -73.5q59 -68 170 -68q133 0 216 86q42 42 60.5 99t18.5 141v581h123v-989h-123v139q-60 -89 -131.5 -127.5t-177.5 -38.5q-171 0 -260 103q-35 41 -50 95.5t-15 141.5zM254 1133l217 260h141l219 -260h-139l-149 182 l-152 -182h-137z" />
<glyph unicode="&#xfc;" horiz-adv-x="1056" d="M150 313v676h122v-647q0 -76 10.5 -118.5t36.5 -73.5q59 -68 170 -68q133 0 216 86q42 42 60.5 99t18.5 141v581h123v-989h-123v139q-60 -89 -131.5 -127.5t-177.5 -38.5q-171 0 -260 103q-35 41 -50 95.5t-15 141.5zM307 1174v178h129v-178h-129zM645 1174v178h129v-178 h-129z" />
<glyph unicode="&#xfd;" horiz-adv-x="905" d="M14 989h133l236 -616q52 -137 72 -238q5 22 10 41t14 45.5t14 40.5t20 54.5t22 58.5l229 614h129l-438 -1118q-47 -121 -99.5 -166t-146.5 -45q-34 0 -86 8v107q49 -6 70 -6q52 0 84 28t61 99l53 131zM430 1133l158 260h176l-227 -260h-107z" />
<glyph unicode="&#xfe;" horiz-adv-x="1120" d="M150 -313v1679h122v-518q66 88 143 128t181 40q194 0 311 -139t117 -369q0 -238 -120 -386.5t-312 -148.5q-100 0 -173.5 39.5t-146.5 132.5v-458h-122zM272 500q0 -197 83.5 -307.5t232.5 -110.5q146 0 229.5 111t83.5 303q0 191 -83.5 301t-229.5 110t-231 -109 t-85 -298z" />
<glyph unicode="&#xff;" horiz-adv-x="905" d="M14 989h133l236 -616q52 -137 72 -238q5 22 10 41t14 45.5t14 40.5t20 54.5t22 58.5l229 614h129l-438 -1118q-47 -121 -99.5 -166t-146.5 -45q-34 0 -86 8v107q49 -6 70 -6q52 0 84 28t61 99l53 131zM248 1174v178h129v-178h-129zM586 1174v178h129v-178h-129z" />
<glyph unicode="&#x152;" horiz-adv-x="2084" d="M106 674q0 327 167 525t442 198q114 0 196.5 -37.5t157.5 -122.5v129h913v-117h-776v-493h713v-109h-713v-530h795v-117h-932v143q-67 -94 -148.5 -134t-203.5 -40q-142 0 -268.5 62.5t-208.5 173.5q-134 182 -134 469zM244 690q0 -272 129.5 -438t341.5 -166 q95 0 179.5 41.5t127.5 108.5q31 46 39 93.5t8 178.5v430q0 82 -16.5 135.5t-53.5 95.5q-97 111 -282 111q-215 0 -344 -161t-129 -429z" />
<glyph unicode="&#x153;" horiz-adv-x="1765" d="M94 494q0 236 120 379t318 143q83 0 156 -26t123 -72q41 -36 88 -125q74 116 162 169.5t205 53.5q128 0 221.5 -65.5t140.5 -188.5q38 -97 43 -291h-715v-29q0 -158 87 -259t223 -101q100 0 176 60t110 165l115 -4q-53 -166 -153.5 -248t-253.5 -82q-123 0 -210.5 55 t-158.5 175q-111 -230 -361 -230q-201 0 -318.5 141t-117.5 380zM217 502q0 -204 80.5 -312t232.5 -108q146 0 230 105.5t84 291.5q0 210 -79.5 319t-232.5 109q-141 0 -229 -102q-86 -102 -86 -303zM958 571h586q-2 156 -76.5 246t-203.5 90q-128 0 -209.5 -89.5 t-96.5 -246.5z" />
<glyph unicode="&#x178;" horiz-adv-x="1165" d="M0 1366h160l426 -647l420 647h157l-514 -768v-598h-129v598zM301 1507v179h150v-179h-150zM772 1507v179h150v-179h-150z" />
<glyph unicode="&#x2c6;" d="M223 1133l217 260h142l219 -260h-139l-150 182l-152 -182h-137z" />
<glyph unicode="&#x2dc;" d="M215 1169q18 179 145 179q26 0 70 -13l168 -53q39 -12 53 -12q46 0 64 69h94q-9 -83 -50 -132.5t-100 -49.5q-24 0 -88 19l-153 49q-29 10 -45 10q-50 0 -62 -66h-96z" />
<glyph unicode="&#x2000;" horiz-adv-x="873" />
<glyph unicode="&#x2001;" horiz-adv-x="1747" />
<glyph unicode="&#x2002;" horiz-adv-x="873" />
<glyph unicode="&#x2003;" horiz-adv-x="1747" />
<glyph unicode="&#x2004;" horiz-adv-x="582" />
<glyph unicode="&#x2005;" horiz-adv-x="436" />
<glyph unicode="&#x2006;" horiz-adv-x="291" />
<glyph unicode="&#x2007;" horiz-adv-x="291" />
<glyph unicode="&#x2008;" horiz-adv-x="218" />
<glyph unicode="&#x2009;" horiz-adv-x="349" />
<glyph unicode="&#x200a;" horiz-adv-x="97" />
<glyph unicode="&#x2010;" horiz-adv-x="495" d="M0 446v117h496v-117h-496z" />
<glyph unicode="&#x2011;" horiz-adv-x="495" d="M0 446v117h496v-117h-496z" />
<glyph unicode="&#x2012;" horiz-adv-x="495" d="M0 446v117h496v-117h-496z" />
<glyph unicode="&#x2013;" horiz-adv-x="1146" d="M127 446v117h895v-117h-895z" />
<glyph unicode="&#x2014;" horiz-adv-x="1327" d="M0 446v117h1327v-117h-1327z" />
<glyph unicode="&#x2018;" horiz-adv-x="475" d="M150 889v223q0 224 174 254v-92q-47 -15 -65 -54.5t-17 -125.5h82v-205h-174z" />
<glyph unicode="&#x2019;" horiz-adv-x="475" d="M150 891v92q47 15 64.5 53.5t16.5 124.5h-81v205h174v-223q0 -222 -174 -252z" />
<glyph unicode="&#x201a;" horiz-adv-x="475" d="M150 0v205h174v-223q0 -222 -174 -252v92q47 15 64.5 53.5t16.5 124.5h-81z" />
<glyph unicode="&#x201c;" horiz-adv-x="794" d="M150 889v223q0 224 174 254v-92q-47 -15 -65 -54.5t-17 -125.5h82v-205h-174zM469 889v223q0 224 174 254v-92q-47 -15 -65 -54.5t-17 -125.5h82v-205h-174z" />
<glyph unicode="&#x201d;" horiz-adv-x="794" d="M150 891v92q47 15 64.5 53.5t16.5 124.5h-81v205h174v-223q0 -222 -174 -252zM469 891v92q48 15 65.5 53.5t16.5 124.5h-82v205h174v-223q0 -222 -174 -252z" />
<glyph unicode="&#x201e;" horiz-adv-x="794" d="M150 0v205h174v-223q0 -222 -174 -252v92q47 15 64.5 53.5t16.5 124.5h-81zM469 0v205h174v-223q0 -222 -174 -252v92q48 15 65.5 53.5t16.5 124.5h-82z" />
<glyph unicode="&#x2022;" horiz-adv-x="1366" d="M401 692q0 120 83.5 202.5t205.5 82.5q114 0 196.5 -83.5t82.5 -199.5q0 -118 -83 -201t-200 -83t-201 82.5t-84 199.5z" />
<glyph unicode="&#x2026;" horiz-adv-x="1423" d="M150 0v205h174v-205h-174zM625 0v205h174v-205h-174zM1098 0v205h174v-205h-174z" />
<glyph unicode="&#x202f;" horiz-adv-x="349" />
<glyph unicode="&#x2039;" horiz-adv-x="542" d="M96 449v110l332 283v-148l-231 -190l231 -191v-147z" />
<glyph unicode="&#x203a;" horiz-adv-x="542" d="M117 166v147l231 191l-231 190v148l332 -283v-110z" />
<glyph unicode="&#x205f;" horiz-adv-x="436" />
<glyph unicode="&#x20ac;" horiz-adv-x="1505" d="M127 543l37 92h143v92h-180l37 92h151q38 267 205.5 422.5t417.5 155.5q267 0 442 -178l-55 -134q-67 94 -167.5 144.5t-217.5 50.5q-192 0 -324 -125t-163 -336h772l-35 -92h-746v-92h709l-35 -92h-663q29 -207 162 -332t323 -125q118 0 219.5 52.5t169.5 148.5v-187 q-165 -131 -389 -131q-250 0 -418 155t-205 419h-190z" />
<glyph unicode="&#x2122;" horiz-adv-x="1693" d="M18 1284v82h639v-82h-268v-737h-100v737h-271zM788 547v819h121l277 -704l280 704h117v-819h-96v221q0 106 4 430l-260 -651h-90l-262 659q6 -205 6 -387v-272h-97z" />
<glyph unicode="&#xe000;" horiz-adv-x="993" d="M0 0v993h993v-993h-993z" />
</font>
</defs>
</svg>
